<?xml version="1.0" encoding="UTF-8"?>
<svg xmlns="http://www.w3.org/2000/svg" xmlns:xlink="http://www.w3.org/1999/xlink" width="75pt" height="59pt" viewBox="0 0 75 59" version="1.1">
<g id="surface1">
<path style=" stroke:none;fill-rule:evenodd;fill:rgb(0%,68.199158%,93.699646%);fill-opacity:1;" d="M 37.386719 16.710938 L 37.542969 16.625 L 51.679688 24.359375 C 52.648438 24.460938 52.605469 27.121094 51.269531 26.148438 L 40.308594 21.488281 C 38.890625 21.148438 38.085938 21.625 38.054688 23.128906 L 38.054688 32.296875 C 38.054688 33.226563 38.359375 33.988281 38.976563 34.347656 L 42.507813 36.394531 L 42.507813 28.046875 C 42.460938 27.230469 42.902344 27.214844 43.535156 27.535156 L 53.523438 31.375 C 55.164063 32.007813 56.515625 31.988281 56.542969 29.480469 L 56.597656 25.023438 C 56.617188 23.035156 56.167969 21.824219 54.90625 21.132813 L 37.386719 11.554688 L 37.386719 16.710938 "/>
<path style=" stroke:none;fill-rule:evenodd;fill:rgb(2.69928%,30.599976%,63.499451%);fill-opacity:1;" d="M 17.875 38.855469 L 34.671875 33.679688 C 35.90625 33.136719 36.714844 32.328125 36.671875 31.015625 L 36.671875 23.792969 C 36.804688 21.070313 35.324219 21.089844 33.496094 21.695313 C 30.097656 23.265625 26.390625 24.835938 22.992188 26.40625 C 22.386719 26.765625 22.535156 25.867188 22.472656 25.3125 C 22.472656 25.066406 22.914063 24.820313 23.304688 24.613281 L 37.386719 16.710938 L 37.386719 11.554688 L 19.871094 21.4375 C 18.570313 22.171875 17.941406 23.390625 17.925781 24.816406 L 17.875 29.734375 C 17.859375 31.453125 18.472656 32.316406 20.332031 31.476563 L 31.789063 27.144531 C 32.699219 27.164063 32.617188 28.90625 31.726563 29.179688 L 17.925781 33.988281 L 17.875 38.855469 "/>
<path style=" stroke:none;fill-rule:nonzero;fill:rgb(2.69928%,30.599976%,63.499451%);fill-opacity:1;" d="M 5.269531 44.078125 L 7.082031 44.078125 C 7.132813 44.285156 7.21875 44.4375 7.351563 44.53125 C 7.484375 44.621094 7.679688 44.664063 7.9375 44.664063 C 8.15625 44.664063 8.328125 44.628906 8.453125 44.554688 C 8.574219 44.480469 8.636719 44.378906 8.636719 44.246094 C 8.636719 44.039063 8.375 43.863281 7.855469 43.734375 C 7.75 43.710938 7.671875 43.6875 7.613281 43.675781 C 7.1875 43.5625 6.847656 43.464844 6.59375 43.375 C 6.339844 43.285156 6.15625 43.199219 6.042969 43.121094 C 5.816406 42.960938 5.652344 42.769531 5.539063 42.542969 C 5.429688 42.324219 5.375 42.070313 5.375 41.78125 C 5.375 41.207031 5.585938 40.757813 6.019531 40.429688 C 6.457031 40.101563 7.050781 39.9375 7.808594 39.9375 C 8.554688 39.9375 9.140625 40.09375 9.566406 40.40625 C 9.996094 40.722656 10.234375 41.167969 10.292969 41.753906 L 8.527344 41.753906 C 8.496094 41.582031 8.421875 41.457031 8.300781 41.371094 C 8.175781 41.289063 8.003906 41.246094 7.773438 41.246094 C 7.578125 41.246094 7.429688 41.28125 7.332031 41.347656 C 7.234375 41.414063 7.1875 41.511719 7.1875 41.644531 C 7.1875 41.835938 7.441406 41.996094 7.949219 42.125 C 7.996094 42.136719 8.03125 42.148438 8.050781 42.152344 C 8.125 42.167969 8.238281 42.199219 8.386719 42.234375 C 9.0625 42.40625 9.5 42.558594 9.707031 42.699219 C 9.96875 42.871094 10.152344 43.0625 10.269531 43.28125 C 10.390625 43.5 10.449219 43.757813 10.449219 44.054688 C 10.449219 44.695313 10.226563 45.1875 9.777344 45.527344 C 9.332031 45.875 8.691406 46.042969 7.855469 46.042969 C 7.085938 46.042969 6.476563 45.875 6.027344 45.527344 C 5.578125 45.1875 5.324219 44.699219 5.269531 44.078125 Z M 10.523438 45.882813 L 10.523438 40.085938 L 12.222656 40.085938 L 12.222656 42.0625 C 12.398438 41.867188 12.59375 41.726563 12.8125 41.632813 C 13.03125 41.535156 13.273438 41.488281 13.539063 41.488281 C 13.8125 41.488281 14.050781 41.53125 14.257813 41.617188 C 14.464844 41.703125 14.644531 41.832031 14.785156 42.003906 C 14.914063 42.160156 15.007813 42.351563 15.058594 42.582031 C 15.113281 42.808594 15.140625 43.167969 15.140625 43.660156 L 15.140625 45.882813 L 13.441406 45.882813 L 13.441406 43.667969 C 13.441406 43.339844 13.398438 43.117188 13.308594 42.996094 C 13.222656 42.871094 13.074219 42.8125 12.859375 42.8125 C 12.644531 42.8125 12.484375 42.882813 12.382813 43.023438 C 12.277344 43.167969 12.222656 43.382813 12.222656 43.675781 L 12.222656 45.882813 Z M 18.238281 43.972656 C 18.078125 44.039063 17.859375 44.105469 17.59375 44.175781 C 17.167969 44.289063 16.953125 44.441406 16.953125 44.628906 C 16.953125 44.75 16.996094 44.84375 17.078125 44.910156 C 17.164063 44.980469 17.285156 45.011719 17.4375 45.011719 C 17.71875 45.011719 17.925781 44.949219 18.058594 44.816406 C 18.1875 44.683594 18.253906 44.476563 18.253906 44.191406 C 18.253906 44.128906 18.253906 44.085938 18.253906 44.054688 C 18.25 44.027344 18.246094 43.996094 18.238281 43.972656 Z M 18.398438 45.882813 L 18.292969 45.472656 C 18.074219 45.667969 17.839844 45.808594 17.585938 45.898438 C 17.335938 45.992188 17.050781 46.039063 16.738281 46.039063 C 16.253906 46.039063 15.878906 45.917969 15.617188 45.679688 C 15.355469 45.441406 15.222656 45.109375 15.222656 44.675781 C 15.222656 44.253906 15.351563 43.941406 15.613281 43.738281 C 15.871094 43.535156 16.363281 43.390625 17.085938 43.296875 C 17.175781 43.285156 17.300781 43.269531 17.453125 43.253906 C 17.992188 43.195313 18.261719 43.054688 18.261719 42.835938 C 18.261719 42.714844 18.210938 42.625 18.113281 42.566406 C 18.015625 42.511719 17.859375 42.484375 17.648438 42.484375 C 17.46875 42.484375 17.335938 42.515625 17.242188 42.585938 C 17.148438 42.65625 17.09375 42.761719 17.078125 42.90625 L 15.414063 42.90625 C 15.421875 42.429688 15.617188 42.066406 16.003906 41.820313 C 16.390625 41.574219 16.957031 41.449219 17.707031 41.449219 C 18.058594 41.449219 18.382813 41.484375 18.679688 41.546875 C 18.976563 41.613281 19.210938 41.703125 19.375 41.8125 C 19.578125 41.949219 19.71875 42.105469 19.796875 42.277344 C 19.882813 42.449219 19.921875 42.695313 19.921875 43.011719 L 19.921875 45.398438 C 19.921875 45.476563 19.9375 45.546875 19.96875 45.609375 C 20 45.671875 20.046875 45.722656 20.105469 45.761719 L 20.105469 45.882813 Z M 23.292969 43.753906 C 23.292969 43.414063 23.230469 43.167969 23.121094 43.007813 C 23.007813 42.84375 22.835938 42.761719 22.605469 42.761719 C 22.355469 42.761719 22.175781 42.839844 22.058594 42.996094 C 21.945313 43.15625 21.886719 43.40625 21.886719 43.753906 C 21.886719 44.078125 21.945313 44.316406 22.0625 44.480469 C 22.179688 44.640625 22.355469 44.71875 22.589844 44.71875 C 22.820313 44.71875 22.996094 44.636719 23.113281 44.476563 C 23.230469 44.316406 23.292969 44.074219 23.292969 43.753906 Z M 20.238281 47.597656 L 20.238281 41.601563 L 21.742188 41.601563 L 21.742188 42.152344 C 21.910156 41.921875 22.105469 41.757813 22.328125 41.648438 C 22.554688 41.542969 22.820313 41.488281 23.128906 41.488281 C 23.683594 41.488281 24.128906 41.699219 24.476563 42.113281 C 24.816406 42.53125 24.992188 43.078125 24.992188 43.753906 C 24.992188 44.445313 24.820313 44.996094 24.476563 45.410156 C 24.136719 45.824219 23.671875 46.027344 23.097656 46.027344 C 22.832031 46.027344 22.601563 45.984375 22.40625 45.894531 C 22.207031 45.804688 22.035156 45.667969 21.886719 45.484375 L 21.886719 47.597656 Z M 26.496094 43.738281 C 26.496094 44.136719 26.554688 44.417969 26.660156 44.59375 C 26.769531 44.765625 26.949219 44.851563 27.199219 44.851563 C 27.449219 44.851563 27.628906 44.761719 27.738281 44.589844 C 27.851563 44.414063 27.90625 44.132813 27.90625 43.738281 C 27.90625 43.347656 27.851563 43.066406 27.738281 42.894531 C 27.628906 42.722656 27.449219 42.636719 27.199219 42.636719 C 26.949219 42.636719 26.769531 42.71875 26.660156 42.890625 C 26.554688 43.0625 26.496094 43.34375 26.496094 43.738281 Z M 24.777344 43.738281 C 24.777344 43.027344 24.992188 42.472656 25.425781 42.0625 C 25.855469 41.65625 26.445313 41.449219 27.199219 41.449219 C 27.953125 41.449219 28.542969 41.65625 28.972656 42.0625 C 29.398438 42.472656 29.613281 43.027344 29.613281 43.738281 C 29.613281 44.453125 29.398438 45.011719 28.96875 45.421875 C 28.539063 45.832031 27.949219 46.039063 27.199219 46.039063 C 26.445313 46.039063 25.855469 45.832031 25.425781 45.421875 C 24.996094 45.011719 24.777344 44.453125 24.777344 43.738281 Z M 31.125 43.738281 C 31.125 44.136719 31.179688 44.417969 31.289063 44.59375 C 31.398438 44.765625 31.574219 44.851563 31.828125 44.851563 C 32.074219 44.851563 32.253906 44.761719 32.367188 44.589844 C 32.480469 44.414063 32.535156 44.132813 32.535156 43.738281 C 32.535156 43.347656 32.480469 43.066406 32.367188 42.894531 C 32.253906 42.722656 32.074219 42.636719 31.828125 42.636719 C 31.574219 42.636719 31.398438 42.71875 31.289063 42.890625 C 31.179688 43.0625 31.125 43.34375 31.125 43.738281 Z M 29.40625 43.738281 C 29.40625 43.027344 29.621094 42.472656 30.050781 42.0625 C 30.480469 41.65625 31.074219 41.449219 31.828125 41.449219 C 32.582031 41.449219 33.171875 41.65625 33.597656 42.0625 C 34.027344 42.472656 34.242188 43.027344 34.242188 43.738281 C 34.242188 44.453125 34.027344 45.011719 33.597656 45.421875 C 33.167969 45.832031 32.578125 46.039063 31.828125 46.039063 C 31.074219 46.039063 30.484375 45.832031 30.050781 45.421875 C 29.621094 45.011719 29.40625 44.453125 29.40625 43.738281 Z M 34.269531 45.882813 L 34.269531 41.601563 L 35.839844 41.601563 L 35.839844 42.382813 C 35.953125 42.074219 36.113281 41.847656 36.324219 41.707031 C 36.535156 41.5625 36.816406 41.488281 37.167969 41.488281 L 37.324219 41.488281 L 37.324219 43.1875 C 37.257813 43.183594 37.199219 43.175781 37.140625 43.171875 C 37.085938 43.167969 37.027344 43.167969 36.976563 43.167969 C 36.632813 43.167969 36.378906 43.242188 36.21875 43.398438 C 36.054688 43.554688 35.976563 43.796875 35.976563 44.128906 L 35.976563 45.882813 Z M 37.375 41.167969 L 37.375 39.941406 L 39.09375 39.941406 L 39.09375 41.167969 Z M 39.09375 41.601563 L 39.09375 45.945313 C 39.09375 46.542969 38.980469 46.96875 38.753906 47.222656 C 38.523438 47.480469 38.148438 47.605469 37.628906 47.605469 L 36.667969 47.605469 L 36.667969 46.34375 L 36.824219 46.34375 C 37.046875 46.34375 37.195313 46.304688 37.269531 46.230469 C 37.339844 46.152344 37.375 45.996094 37.375 45.753906 L 37.375 41.601563 Z M 39.390625 41.167969 L 39.390625 39.941406 L 41.105469 39.941406 L 41.105469 41.167969 Z M 39.390625 45.882813 L 39.390625 41.601563 L 41.105469 41.601563 L 41.105469 45.882813 L 39.390625 45.882813 "/>
<path style=" stroke:none;fill-rule:nonzero;fill:rgb(0%,68.199158%,93.699646%);fill-opacity:1;" d="M 44.738281 42.691406 L 45.339844 42.691406 C 45.726563 42.691406 45.984375 42.648438 46.117188 42.5625 C 46.246094 42.472656 46.3125 42.324219 46.3125 42.101563 C 46.3125 41.878906 46.25 41.722656 46.125 41.636719 C 46 41.550781 45.738281 41.507813 45.339844 41.507813 L 44.738281 41.507813 Z M 42.878906 45.882813 L 42.878906 40.085938 L 45.265625 40.085938 C 45.789063 40.085938 46.207031 40.117188 46.515625 40.179688 C 46.824219 40.238281 47.082031 40.339844 47.289063 40.476563 C 47.558594 40.65625 47.757813 40.878906 47.890625 41.148438 C 48.019531 41.417969 48.085938 41.734375 48.085938 42.101563 C 48.085938 42.75 47.894531 43.246094 47.511719 43.59375 C 47.128906 43.9375 46.574219 44.109375 45.851563 44.109375 L 44.738281 44.109375 L 44.738281 45.882813 Z M 50.734375 43.972656 C 50.570313 44.039063 50.355469 44.105469 50.082031 44.175781 C 49.660156 44.289063 49.445313 44.441406 49.445313 44.628906 C 49.445313 44.75 49.488281 44.84375 49.574219 44.910156 C 49.65625 44.980469 49.777344 45.011719 49.929688 45.011719 C 50.214844 45.011719 50.421875 44.949219 50.550781 44.816406 C 50.679688 44.683594 50.746094 44.476563 50.746094 44.191406 C 50.746094 44.128906 50.746094 44.085938 50.742188 44.054688 C 50.742188 44.027344 50.738281 43.996094 50.734375 43.972656 Z M 50.890625 45.882813 L 50.785156 45.472656 C 50.566406 45.667969 50.332031 45.808594 50.082031 45.898438 C 49.828125 45.992188 49.542969 46.039063 49.230469 46.039063 C 48.75 46.039063 48.375 45.917969 48.109375 45.679688 C 47.847656 45.441406 47.714844 45.109375 47.714844 44.675781 C 47.714844 44.253906 47.84375 43.941406 48.101563 43.738281 C 48.363281 43.535156 48.855469 43.390625 49.578125 43.296875 C 49.667969 43.285156 49.792969 43.269531 49.949219 43.253906 C 50.484375 43.195313 50.753906 43.054688 50.753906 42.835938 C 50.753906 42.714844 50.703125 42.625 50.605469 42.566406 C 50.507813 42.511719 50.351563 42.484375 50.136719 42.484375 C 49.964844 42.484375 49.828125 42.515625 49.734375 42.585938 C 49.640625 42.65625 49.585938 42.761719 49.570313 42.90625 L 47.90625 42.90625 C 47.914063 42.429688 48.113281 42.066406 48.496094 41.820313 C 48.882813 41.574219 49.449219 41.449219 50.199219 41.449219 C 50.550781 41.449219 50.875 41.484375 51.171875 41.546875 C 51.46875 41.613281 51.703125 41.703125 51.867188 41.8125 C 52.070313 41.949219 52.210938 42.105469 52.292969 42.277344 C 52.375 42.449219 52.414063 42.695313 52.414063 43.011719 L 52.414063 45.398438 C 52.414063 45.476563 52.429688 45.546875 52.460938 45.609375 C 52.496094 45.671875 52.539063 45.722656 52.597656 45.761719 L 52.597656 45.882813 Z M 52.761719 45.882813 L 52.761719 40.085938 L 54.476563 40.085938 L 54.476563 45.882813 Z M 54.804688 45.882813 L 54.804688 40.085938 L 56.519531 40.085938 L 56.519531 45.882813 Z M 58.304688 43.738281 C 58.304688 44.136719 58.355469 44.417969 58.46875 44.59375 C 58.578125 44.765625 58.753906 44.851563 59.003906 44.851563 C 59.253906 44.851563 59.433594 44.761719 59.546875 44.589844 C 59.65625 44.414063 59.714844 44.132813 59.714844 43.738281 C 59.714844 43.347656 59.65625 43.066406 59.546875 42.894531 C 59.433594 42.722656 59.253906 42.636719 59.003906 42.636719 C 58.753906 42.636719 58.578125 42.71875 58.46875 42.890625 C 58.355469 43.0625 58.304688 43.34375 58.304688 43.738281 Z M 56.582031 43.738281 C 56.582031 43.027344 56.796875 42.472656 57.230469 42.0625 C 57.660156 41.65625 58.25 41.449219 59.003906 41.449219 C 59.757813 41.449219 60.347656 41.65625 60.777344 42.0625 C 61.207031 42.472656 61.421875 43.027344 61.421875 43.738281 C 61.421875 44.453125 61.207031 45.011719 60.773438 45.421875 C 60.34375 45.832031 59.753906 46.039063 59.003906 46.039063 C 58.253906 46.039063 57.660156 45.832031 57.230469 45.421875 C 56.796875 45.011719 56.582031 44.453125 56.582031 43.738281 Z M 61.4375 45.882813 L 61.4375 41.601563 L 62.984375 41.601563 L 62.984375 42.230469 C 63.183594 41.980469 63.40625 41.792969 63.652344 41.675781 C 63.898438 41.550781 64.175781 41.488281 64.484375 41.488281 C 64.746094 41.488281 64.976563 41.53125 65.183594 41.621094 C 65.386719 41.707031 65.558594 41.835938 65.703125 42.003906 C 65.832031 42.160156 65.921875 42.347656 65.976563 42.570313 C 66.027344 42.792969 66.058594 43.15625 66.058594 43.660156 L 66.058594 45.882813 L 64.355469 45.882813 L 64.355469 43.667969 C 64.355469 43.339844 64.3125 43.117188 64.222656 42.996094 C 64.140625 42.871094 63.992188 42.8125 63.777344 42.8125 C 63.5625 42.8125 63.402344 42.882813 63.296875 43.023438 C 63.191406 43.167969 63.140625 43.382813 63.140625 43.675781 L 63.140625 45.882813 Z M 66.375 41.167969 L 66.375 39.941406 L 68.09375 39.941406 L 68.09375 41.167969 Z M 68.09375 41.601563 L 68.09375 45.945313 C 68.09375 46.542969 67.980469 46.96875 67.753906 47.222656 C 67.527344 47.480469 67.148438 47.605469 66.628906 47.605469 L 65.667969 47.605469 L 65.667969 46.34375 L 65.820313 46.34375 C 66.046875 46.34375 66.195313 46.304688 66.269531 46.230469 C 66.339844 46.152344 66.375 45.996094 66.375 45.753906 L 66.375 41.601563 Z M 68.390625 41.167969 L 68.390625 39.941406 L 70.109375 39.941406 L 70.109375 41.167969 Z M 68.390625 45.882813 L 68.390625 41.601563 L 70.109375 41.601563 L 70.109375 45.882813 L 68.390625 45.882813 "/>
</g>
</svg>
